<svg xmlns="http://www.w3.org/2000/svg" viewBox="0 0 30 31">
  <g fill="none">
    <path fill="var(--color-dark)" d="M3,1 L27,1 L27,29 C27,30.1045695 26.1045695,31 25,31 L5,31 C3.8954305,31 3,30.1045695 3,29 L3,1 Z"/>
    <path fill="#FFF" d="M15 15L15 15C13.0670034 15 11.5 13.4329966 11.5 11.5L11.5 11.5C11.5 9.56700338 13.0670034 8 15 8L15 8C16.9329966 8 18.5 9.56700338 18.5 11.5L18.5 11.5C18.5 13.4329966 16.9329966 15 15 15zM18.122807 27.754386L11.877193 27.754386C11.3927327 27.754386 11 27.3616533 11 26.877193L11 26.877193C11 26.3927327 11.3927327 26 11.877193 26L18.122807 26C18.6072673 26 19 26.3927327 19 26.877193L19 26.877193C19 27.3616533 18.6072673 27.754386 18.122807 27.754386z"/>
    <rect width="30" height="3" fill="var(--color-light)" rx="1.5"/>
  </g>
</svg>
