<svg xmlns="http://www.w3.org/2000/svg" viewBox="0 0 26 28" style="--color-light: #B7BFC6; --color-dark: #415668">
  <g fill="none">
    <path fill="var(--color-light)" d="M10.4132231,16.1983471 L1.15702479,16.1983471 C0.518347107,16.1983471 0,15.68 0,15.0413223 L0,1.15702479 C0,0.518347107 0.518347107,0 1.15702479,0 L10.4132231,0 C11.0519008,0 11.5702479,0.518347107 11.5702479,1.15702479 L11.5702479,15.0413223 C11.5702479,15.68 11.0519008,16.1983471 10.4132231,16.1983471 Z"/>
    <path fill="var(--color-dark)" d="M10.4132231,27.768595 L1.15702479,27.768595 C0.518347107,27.768595 0,27.2502479 0,26.6115702 L0,19.6694215 C0,19.0307438 0.518347107,18.5123967 1.15702479,18.5123967 L10.4132231,18.5123967 C11.0519008,18.5123967 11.5702479,19.0307438 11.5702479,19.6694215 L11.5702479,26.6115702 C11.5702479,27.2502479 11.0519008,27.768595 10.4132231,27.768595 Z"/>
    <path fill="var(--color-light)" d="M24.2975207,9.25619835 L15.0413223,9.25619835 C14.4026446,9.25619835 13.8842975,8.73785124 13.8842975,8.09917355 L13.8842975,1.15702479 C13.8842975,0.518347107 14.4026446,0 15.0413223,0 L24.2975207,0 C24.9361983,0 25.4545455,0.518347107 25.4545455,1.15702479 L25.4545455,8.09917355 C25.4545455,8.73785124 24.9361983,9.25619835 24.2975207,9.25619835 Z"/>
    <path fill="var(--color-dark)" d="M24.2975207,27.768595 L15.0413223,27.768595 C14.4026446,27.768595 13.8842975,27.2502479 13.8842975,26.6115702 L13.8842975,12.7272727 C13.8842975,12.088595 14.4026446,11.5702479 15.0413223,11.5702479 L24.2975207,11.5702479 C24.9361983,11.5702479 25.4545455,12.088595 25.4545455,12.7272727 L25.4545455,26.6115702 C25.4545455,27.2502479 24.9361983,27.768595 24.2975207,27.768595 Z"/>
  </g>
</svg>