<svg xmlns="http://www.w3.org/2000/svg" viewBox="0 0 28 28">
  <g fill="none">
    <path fill="#B7BFC6" d="M3.5,25.375 L3.5,27.125 C3.5,27.608875 3.891125,28 4.375,28 L23.625,28 C24.108875,28 24.5,27.608875 24.5,27.125 L24.5,25.375 L3.5,25.375 Z"/>
    <path fill="#415668" d="M27.125,0 L0.875,0 C0.391125,0 0,0.391125 0,0.875 C0,3.287375 1.962625,5.25 4.375,5.25 L13.125,5.25 L13.125,7.919625 C7.74375,8.36675 3.5,12.88 3.5,18.375 L3.5,23.625 L24.5,23.625 L24.5,18.375 C24.5,12.88 20.25625,8.36675 14.875,7.919625 L14.875,5.25 L23.625,5.25 C26.037375,5.25 28,3.287375 28,0.875 C28,0.391125 27.608875,0 27.125,0 Z M17.5,16.625 C17.5,18.557875 15.932875,20.125 14,20.125 C12.067125,20.125 10.5,18.557875 10.5,16.625 C10.5,14.692125 12.067125,13.125 14,13.125 C15.932875,13.125 17.5,14.692125 17.5,16.625 Z"/>
  </g>
</svg>
