<svg xmlns="http://www.w3.org/2000/svg" viewBox="0 0 34 39">
  <path fill="#415668" d="M0,3 L0,35.8571429 C2.02906125e-16,37.5139971 1.34314575,38.8571429 3,38.8571429 L31,38.8571429 C32.6568542,38.8571429 34,37.5139971 34,35.8571429 L34,3 C34,1.34314575 32.6568542,-2.20865612e-11 31,-2.20877285e-11 L3,-2.20877285e-11 C1.34314575,-2.20874241e-11 -2.02906125e-16,1.34314575 0,3 Z M17,29.1428571 C11.6437857,29.1428571 7.28571429,24.7847857 7.28571429,19.4285714 C7.28571429,14.0723571 11.6437857,9.71428571 17,9.71428571 L17,19.4285714 L26.7142857,19.4285714 C26.7142857,24.7847857 22.3562143,29.1428571 17,29.1428571 Z"/>
</svg>
