<svg xmlns="http://www.w3.org/2000/svg" viewBox="0 0 20 20">
  <path fill="#7F878A" d="M9.79166667,0 C4.38166667,0 0,4.38166667 0,9.79166667 C0,14.3933333 3.1575,18.2125 7.4175,19.2891667 C7.36833333,19.1666667 7.34416667,18.995 7.34416667,18.8241667 L7.34416667,17.1591667 L6.12,17.1591667 C5.45916667,17.1591667 4.84666667,16.8658333 4.5775,16.3266667 C4.25916667,15.7391667 4.21,14.8333333 3.4025,14.27 C3.1575,14.0741667 3.35333333,13.8783333 3.6225,13.9025 C4.13666667,14.0491667 4.5525,14.3925 4.94416667,14.9058333 C5.33583333,15.42 5.5075,15.5425 6.24166667,15.5425 C6.58416667,15.5425 7.1225,15.5183333 7.6125,15.4441667 C7.88166667,14.7583333 8.34666667,14.1466667 8.91,13.8533333 C5.63,13.4616667 4.06333333,11.8458333 4.06333333,9.6425 C4.06333333,8.6875 4.47916667,7.78166667 5.165,6.99833333 C4.945,6.23916667 4.65083333,4.6725 5.26333333,4.06083333 C6.7325,4.06083333 7.61333333,5.01583333 7.83333333,5.26 C8.5675,5.015 9.37583333,4.86833333 10.2075,4.86833333 C11.0641667,4.86833333 11.8475,5.015 12.5816667,5.26 C12.8016667,5.015 13.6833333,4.06083333 15.1516667,4.06083333 C15.7391667,4.64833333 15.47,6.23916667 15.225,6.99833333 C15.9108333,7.7575 16.3025,8.6875 16.3025,9.6425 C16.3025,11.8458333 14.76,13.4616667 11.505,13.8041667 C12.4108333,14.2691667 13.0475,15.5908333 13.0475,16.57 L13.0475,18.8 C13.0475,18.8733333 13.0233333,18.9466667 13.0233333,19.02 C16.8416667,17.6983333 19.5833333,14.0758333 19.5833333,9.79166667 C19.5833333,4.38166667 15.2016667,0 9.79166667,0 Z"/>
</svg>
