<svg xmlns="http://www.w3.org/2000/svg" viewBox="0 0 31 34">
  <g fill="none" fill-rule="evenodd">
    <path fill="#B7BFC6" fill-rule="nonzero" d="M20.1767413,27.1325979 L0,27.1325979 L0,30.2531846 C0.00235694291,32.1326748 1.45894497,33.6896011 3.33439473,33.8172125 C3.37446271,33.8114885 3.41486737,33.8081214 3.45527204,33.8077847 L21.5996588,33.8077847 C20.6838198,32.8155136 20.1757311,31.5144834 20.1767413,30.1639577 L20.1767413,27.1325979 Z"/>
    <path fill="#415668" fill-rule="nonzero" d="M6.71410204,2.24784602 L6.56325797,24.3461657 L22.1012074,24.3461657 C22.5773089,24.3461657 22.9631735,24.7323669 22.9631735,25.2081318 L22.9631735,29.1017944 C22.9631735,30.9779175 24.4598295,32.5779421 26.2968948,32.7456214 L26.5908387,32.7456214 C26.6379775,32.7459582 26.6851162,32.7499986 26.7315816,32.7580795 C28.7026557,32.6910752 30.2659794,31.0738785 30.2663162,29.1017944 L30.2671706,2 C30.2671706,0.8954305 29.3717401,1.39535108e-14 28.2671706,1.12132525e-14 C28.2668858,1.12125458e-14 28.2666009,6.08706413e-08 28.266316,1.82611897e-07 L8.9922516,0.00909107045 C7.74543106,-0.000336705515 6.72656021,1.00136224 6.71410204,2.24784602 Z"/>
    <path stroke="#FFF" stroke-width="2.125" d="M10.625 6.90625L19.125 6.90625M10.625 12.21875L25.5 12.21875"/>
  </g>
</svg>
