<svg xmlns="http://www.w3.org/2000/svg" viewBox="0 0 29 28">
  <g fill="none" fill-rule="evenodd">
    <path fill="#2490EF" d="M27,0.478630435 L8,0.480000004 C6.89548144,0.480072038 6.00013044,1.37548144 6.00013044,2.48 L6,24.3125 C5.9996629,25.6731024 5.3825861,26.9602113 4.322,27.8125 L26,27.8125 C27.6561688,27.8108463 28.9983463,26.4686688 29,24.8125 L29.0001304,2.4785 C29.0001304,1.3739305 28.1046999,0.4785 27.0001304,0.4785 C27.000087,0.4785 27.0000435,0.478500001 27,0.478500004 Z"/>
    <path fill="#FFF" fill-rule="nonzero" d="M23.5174938 8.4L11.2405707 8.4C10.7435144 8.4 10.3405707 7.99705627 10.3405707 7.5L10.3405707 7.5C10.3405707 7.00294373 10.7435144 6.6 11.2405707 6.6L23.5174938 6.6C24.0145501 6.6 24.4174938 7.00294373 24.4174938 7.5L24.4174938 7.5C24.4174938 7.99705627 24.0145501 8.4 23.5174938 8.4zM19.4405707 12.7L11.2405707 12.7C10.7435144 12.7 10.3405707 12.2970563 10.3405707 11.8L10.3405707 11.8C10.3405707 11.3029437 10.7435144 10.9 11.2405707 10.9L19.4405707 10.9C19.937627 10.9 20.3405707 11.3029437 20.3405707 11.8L20.3405707 11.8C20.3405707 12.2970563 19.937627 12.7 19.4405707 12.7z"/>
    <path fill="#AFD3F2" d="M3,12.3125 L1,12.3125 C0.44771525,12.3125 -6.76353751e-17,12.7602153 0,13.3125 L0,22.3125 C2.88038934e-08,24.2454966 0.0462790565,26 1.97927566,26 C3.91227226,26 3.99999997,24.2454966 4,22.3125 L4,13.3125 C4,12.7602153 3.55228475,12.3125 3,12.3125 Z"/>
  </g>
</svg>
