<svg xmlns="http://www.w3.org/2000/svg" viewBox="0 0 32 39">
  <path fill="#415668" fill-rule="evenodd" d="M29.3439024,0 L2.5,0 C1.11928813,2.53632657e-16 3.29832247e-11,1.11928813 3.29833938e-11,2.5 L3.29833938e-11,35.9 C3.29835629e-11,37.2807119 1.11928813,38.4 2.5,38.4 L29.3439024,38.4 C30.7246143,38.4 31.8439024,37.2807119 31.8439024,35.9 L31.8439024,2.5 C31.8439024,1.11928813 30.7246143,-2.53632657e-16 29.3439024,0 Z M24.4368431,18.0237913 L20.7873643,21.5674435 L21.6488257,26.5719652 C21.7024575,26.8850087 21.5734059,27.2013913 21.3161407,27.3883826 C21.1694911,27.4944 20.9968637,27.5478261 20.8233982,27.5478261 C20.6901566,27.5478261 20.556077,27.5161043 20.4328914,27.4518261 L15.9219512,25.0893913 L11.411011,27.4518261 C11.1286059,27.6004174 10.7875409,27.5762087 10.5277617,27.3883826 C10.2696585,27.2013913 10.1406069,26.8850087 10.1950768,26.5719652 L11.0565381,21.5674435 L7.40705931,18.0237913 C7.17912401,17.8017391 7.09700026,17.4703304 7.19504596,17.1689739 C7.29392965,16.8667826 7.55622285,16.6464 7.87214788,16.600487 L12.9160544,15.8700522 L15.1711055,11.3179826 C15.4526727,10.7469913 16.3920678,10.7469913 16.6736349,11.3179826 L18.928686,15.8700522 L23.9725926,16.600487 C24.2885176,16.6464 24.5499728,16.8659478 24.6496945,17.1689739 C24.7469022,17.4703304 24.6656164,17.8017391 24.4368431,18.0237913 Z"/>
</svg>
