<svg xmlns="http://www.w3.org/2000/svg" viewBox="0 0 32 39">
  <path fill="#77D2E1" fill-rule="evenodd" d="M664.343902,469 L637.5,469 C636.119288,469 635,470.119288 635,471.5 L635,504.9 C635,506.280712 636.119288,507.4 637.5,507.4 L664.343902,507.4 C665.724614,507.4 666.843902,506.280712 666.843902,504.9 L666.843902,471.5 C666.843902,470.119288 665.724614,469 664.343902,469 Z M659.436843,487.023791 L655.787364,490.567443 L656.648826,495.571965 C656.702458,495.885009 656.573406,496.201391 656.316141,496.388383 C656.169491,496.4944 655.996864,496.547826 655.823398,496.547826 C655.690157,496.547826 655.556077,496.516104 655.432891,496.451826 L650.921951,494.089391 L646.411011,496.451826 C646.128606,496.600417 645.787541,496.576209 645.527762,496.388383 C645.269659,496.201391 645.140607,495.885009 645.195077,495.571965 L646.056538,490.567443 L642.407059,487.023791 C642.179124,486.801739 642.097,486.47033 642.195046,486.168974 C642.29393,485.866783 642.556223,485.6464 642.872148,485.600487 L647.916054,484.870052 L650.171106,480.317983 C650.452673,479.746991 651.392068,479.746991 651.673635,480.317983 L653.928686,484.870052 L658.972593,485.600487 C659.288518,485.6464 659.549973,485.865948 659.649694,486.168974 C659.746902,486.47033 659.665616,486.801739 659.436843,487.023791 Z" transform="translate(-635 -469)"/>
</svg>
