<svg xmlns="http://www.w3.org/2000/svg" viewBox="0 0 23 20">
  <g fill="none">
    <path fill="#D0D2D3" d="M15.3626044,0.0234543578 C15.2453326,-0.0312724771 15.1515152,0.0234543578 15.1515152,0.156362385 L15.1515152,16.0193264 L22.1018232,19.4905713 C22.4458204,19.66257 22.7272727,19.4905713 22.7272727,19.0996654 L22.7272727,3.83087844 C22.7272727,3.75269725 22.6881821,3.68233418 22.6178191,3.6510617 L15.3626044,0.0234543578 Z"/>
    <path fill="#BABDBE" d="M7.57575758,12.2353567 L15.0264252,0.125089908 C15.0967883,0.0156362385 15.2453326,-0.0312724771 15.3626044,0.0312724771 L22.5630922,3.62760734 C22.6490915,3.67451606 22.6881821,3.78396973 22.6334553,3.86996904 L15.1515152,16.0193264 L7.57575758,12.2353567 Z"/>
    <path fill="#9FA5A8" d="M0.836538762,0.343997248 C0.375269725,0.10945367 0.21890734,0.281452294 0.492541514,0.727085092 L7.57575758,12.2353567 L15.1515152,16.0271445 L7.62266629,3.79178785 C7.59139381,3.73706101 7.5444851,3.69797042 7.48975826,3.66669794 L0.836538762,0.343997248 Z"/>
    <path fill="#7F878A" d="M7.57575758,19.1074835 C7.57575758,19.4905713 7.29430528,19.6703881 6.95030803,19.4983895 L0.422178441,16.2304156 C0.187634863,16.1131438 0,15.8082372 0,15.5502392 L0,0.390905964 C0,0.132908028 0.187634863,0.0156362385 0.422178441,0.132908028 L7.48194014,3.66669794 C7.53666698,3.69797042 7.57575758,3.75269725 7.57575758,3.81524221 L7.57575758,19.1074835 Z"/>
  </g>
</svg>
