<svg xmlns="http://www.w3.org/2000/svg" viewBox="0 0 34 34">
  <g fill="#B3D94A">
    <path d="M0,13.8333333 L0,31.5 C1.69088438e-16,32.8807119 1.11928813,34 2.5,34 L31.5,34 C32.8807119,34 34,32.8807119 34,31.5 L34,13.8333333 C34,12.4526215 32.8807119,11.3333333 31.5,11.3333333 L2.5,11.3333333 C1.11928813,11.3333333 -1.69088438e-16,12.4526215 0,13.8333333 Z M17,26.9166667 C14.6525833,26.9166667 12.75,25.0140833 12.75,22.6666667 C12.75,20.31925 14.6525833,18.4166667 17,18.4166667 C19.3474167,18.4166667 21.25,20.31925 21.25,22.6666667 C21.25,25.0140833 19.3474167,26.9166667 17,26.9166667 Z"/>
    <rect width="25.5" height="2.833" x="4.25" y="5.667" rx="1.417"/>
    <rect width="14.167" height="2.833" x="9.917" rx="1.417"/>
  </g>
</svg>
