<svg width="46" height="51" xmlns="http://www.w3.org/2000/svg">
  <g fill="#FFF" fill-rule="nonzero">
    <path d="M20.828.542c1.25-.716 2.88-.72 4.13 0 6.286 3.552 12.575 7.099 18.86 10.653 1.183.666 1.973 1.982 1.961 3.344v21.372c.01 1.419-.86 2.766-2.107 3.417-6.266 3.533-12.529 7.07-18.794 10.602-1.276.73-2.938.674-4.175-.116-1.878-1.089-3.76-2.172-5.639-3.26-.384-.229-.816-.411-1.088-.783.24-.323.669-.364 1.017-.505.784-.249 1.504-.65 2.224-1.038.183-.124.405-.077.58.035 1.606.921 3.198 1.869 4.81 2.781.344.199.692-.065.986-.229 6.149-3.475 12.305-6.937 18.453-10.413a.61.61 0 00.335-.601c.005-7.05.001-14.102.002-21.152a.661.661 0 00-.393-.66C35.745 10.474 29.504 6.952 23.26 3.435a.65.65 0 00-.735-.001c-6.244 3.518-12.484 7.043-18.727 10.56a.653.653 0 00-.396.656v21.153a.598.598 0 00.34.593c1.666.945 3.334 1.883 5.001 2.824.94.506 2.092.806 3.127.42.913-.328 1.553-1.26 1.536-2.23.009-7.009-.004-14.019.006-21.027-.022-.311.273-.568.575-.539.8-.005 1.602-.01 2.403.002.334-.007.564.328.523.641-.004 7.054.008 14.107-.006 21.16.002 1.88-.77 3.926-2.509 4.846-2.142 1.11-4.79.874-6.906-.19-1.832-.914-3.58-1.993-5.38-2.973-1.25-.647-2.115-2-2.106-3.417V14.539c-.013-1.39.81-2.73 2.028-3.386C8.3 7.617 14.565 4.079 20.828.542z"/>
    <path d="M26.294 15.346c2.732-.175 5.657-.104 8.116 1.242 1.904 1.032 2.96 3.197 2.993 5.312-.053.285-.352.442-.624.423-.793-.001-1.586.01-2.378-.006-.337.013-.532-.297-.574-.594-.228-1.012-.78-2.014-1.733-2.502-1.462-.732-3.157-.696-4.751-.68-1.164.061-2.416.162-3.402.847-.757.518-.987 1.565-.717 2.408.255.605.954.8 1.525.98 3.293.861 6.783.776 10.013 1.91 1.337.461 2.645 1.36 3.103 2.76.599 1.876.336 4.12-.999 5.626-1.083 1.24-2.66 1.914-4.232 2.28-2.093.467-4.264.479-6.389.272-1.998-.228-4.077-.753-5.62-2.114-1.319-1.145-1.963-2.93-1.899-4.652.015-.29.305-.494.584-.47.798-.006 1.596-.008 2.395.001.318-.023.555.253.571.554.148.964.51 1.976 1.35 2.547 1.623 1.047 3.66.975 5.517 1.005 1.54-.069 3.267-.09 4.523-1.107.663-.58.86-1.55.68-2.386-.194-.705-.932-1.034-1.565-1.248-3.25-1.029-6.78-.656-9.998-1.818-1.307-.462-2.571-1.336-3.073-2.678-.7-1.9-.38-4.251 1.095-5.707 1.439-1.448 3.515-2.005 5.489-2.205z"/>
  </g>
</svg>