<svg xmlns="http://www.w3.org/2000/svg" viewBox="0 0 262 212">
  <defs>
    <linearGradient id="open-source-logo-a" x1="50%" x2="50%" y1="111.375%" y2="-32.573%">
      <stop offset="0%" stop-color="#FFF" stop-opacity="0"/>
      <stop offset="21.187%" stop-color="#FFF" stop-opacity="0"/>
      <stop offset="100%" stop-color="#FFF"/>
    </linearGradient>
  </defs>
  <g fill="none" fill-rule="evenodd">
    <path fill="#2490EF" fill-rule="nonzero" d="M38,0.52109375 C17.3234375,0.52109375 0.5,17.3445312 0.5,38.0210937 C0.5,53.4476562 10.1703125,67.4960937 24.55625,72.9757812 C25.15625,73.2148437 25.83125,73.1773437 26.4125,72.8960937 C26.99375,72.6101562 27.434375,72.1039062 27.6265625,71.4851562 L34.6578125,49.0320312 C34.990625,47.9679687 34.53125,46.8148437 33.55625,46.2804687 C30.5140625,44.6023437 28.625,41.4382812 28.625,38.0210937 C28.625,32.8507812 32.8296875,28.6460937 38,28.6460937 C43.1703125,28.6460937 47.375,32.8507812 47.375,38.0210937 C47.375,41.4382812 45.4859375,44.6023437 42.44375,46.2851562 C41.46875,46.8195312 41.0046875,47.9726562 41.3421875,49.0367187 L48.3734375,71.4898437 C48.565625,72.1085937 49.00625,72.6148437 49.5875,72.9007812 C49.9109375,73.0554687 50.2625,73.1351562 50.609375,73.1351562 C50.890625,73.1351562 51.1765625,73.0835937 51.44375,72.9804687 C65.834375,67.4960937 75.5,53.4476562 75.5,38.0210937 C75.5,17.3445312 58.6765625,0.52109375 38,0.52109375 Z" transform="translate(93 94)"/>
    <circle cx="131" cy="131" r="68.5" stroke="url(#open-source-logo-a)" stroke-width="3" opacity=".5"/>
    <circle cx="131" cy="131" r="129.5" stroke="url(#open-source-logo-a)" stroke-width="3" opacity=".5"/>
    <ellipse cx="131" cy="131" stroke="url(#open-source-logo-a)" stroke-width="3" opacity=".5" rx="99.833" ry="99.5"/>
  </g>
</svg>
