<svg xmlns="http://www.w3.org/2000/svg" viewBox="0 0 40 33">
  <g fill="none" transform="translate(2 2)">
    <path fill="#415668" d="M18.0454545,4.41676136 C10.5267045,4.41676136 4.40909091,10.534375 4.40909091,18.053125 C4.40909091,23.6627841 7.92556818,28.7713068 13.1568182,30.7639205 C13.375,30.8508523 13.6204545,30.8372159 13.8318182,30.7349432 C14.0431818,30.6309659 14.2034091,30.446875 14.2732955,30.221875 L16.8301136,22.0571023 C16.9511364,21.6701705 16.7840909,21.2508523 16.4295455,21.0565341 C15.3232955,20.4463068 14.6363636,19.2957386 14.6363636,18.053125 C14.6363636,16.1730114 16.1653409,14.6440341 18.0454545,14.6440341 C19.9255682,14.6440341 21.4545455,16.1730114 21.4545455,18.053125 C21.4545455,19.2957386 20.7676136,20.4463068 19.6613636,21.0582386 C19.3068182,21.2525568 19.1380682,21.671875 19.2607955,22.0588068 L21.8176136,30.2235795 C21.8875,30.4485795 22.0477273,30.6326705 22.2590909,30.7366477 C22.3767045,30.7928977 22.5045455,30.821875 22.6306818,30.821875 C22.7329545,30.821875 22.8369318,30.803125 22.9340909,30.765625 C28.1670455,28.7713068 31.6818182,23.6627841 31.6818182,18.053125 C31.6818182,10.534375 25.5642045,4.41676136 18.0454545,4.41676136 Z"/>
    <path stroke="#B7BFC6" stroke-linecap="round" stroke-width="2.8" d="M33.325957,28.0513967 C33.8207935,27.2276915 34.2533975,26.3639368 34.6182814,25.4683049 C35.5125022,23.2733796 36,20.8870019 36,18.4294585 C36,8.26791582 27.92475,0 18,0 C8.07525,0 0,8.26791582 0,18.4294585 C0,20.8743445 0.482723038,23.2487958 1.3684097,25.4342978 C1.74004781,26.3513443 2.18263488,27.2351228 2.69027839,28.0768777"/>
  </g>
</svg>
