<svg xmlns="http://www.w3.org/2000/svg" viewBox="0 0 28 25">
  <g fill="none" fill-rule="evenodd">
    <path fill="var(--color-dark)" d="M0,8.7 L28,8.7 L28,20.7534668 C28,22.6864634 26.4329966,24.2534668 24.5,24.2534668 L3.5,24.2534668 C1.56700338,24.2534668 2.36723813e-16,22.6864634 0,20.7534668 L0,8.7 Z M14.875,17.2534668 C14.3917508,17.2534668 14,17.6452176 14,18.1284668 C14,18.611716 14.3917508,19.0034668 14.875,19.0034668 L21.875,19.0034668 C22.3582492,19.0034668 22.75,18.611716 22.75,18.1284668 C22.75,17.6452176 22.3582492,17.2534668 21.875,17.2534668 L14.875,17.2534668 Z"/>
    <path fill="var(--color-light)" d="M3.5,0 L24.5,0 C26.4329966,-3.55085719e-16 28,1.56700338 28,3.5 L28,6.37921143 L0,6.37921143 L0,3.5 C-2.36723813e-16,1.56700338 1.56700338,3.55085719e-16 3.5,0 Z"/>
  </g>
</svg>
