<svg xmlns="http://www.w3.org/2000/svg" viewBox="0 0 33 35">
  <path fill="#F0A36F" fill-rule="evenodd" d="M16.624143 13.1468659L29.8109888 7.22019367C30.0628619 7.10699228 30.1752776 6.81104093 30.0620762 6.55916784 30.0117801 6.44725907 29.922093 6.35774955 29.8100848 6.3076753L16.8710227.523153409C16.3784091.358948864 15.8857955.358948864 15.5573864.523153409L2.61832424 6.3076753C2.36622736 6.42037744 2.25322559 6.71610547 2.36592772 6.96820236 2.41600198 7.08021055 2.5055115 7.1698976 2.61742026 7.22019367L15.804266 13.1468659C16.064997 13.2640484 16.3634121 13.2640484 16.624143 13.1468659zM17.6 16.4135095L17.6 33.9349937C17.6 34.4872785 18.0477153 34.9349937 18.6 34.9349937 18.7388001 34.9349937 18.8760802 34.9060989 19.0031037 34.8501481L31.3931818 29.3926136C32.05 29.0642045 32.3784091 28.5715909 32.3784091 27.9147727L32.3784091 9.96483553C32.3784091 9.68869316 32.1545515 9.46483553 31.8784091 9.46483553 31.8084499 9.46483553 31.7392694 9.47951665 31.6753399 9.50792976L18.1938615 15.4996979C17.8327335 15.6601992 17.6 16.0183207 17.6 16.4135095zM14.1845476 15.4996979L.703069233 9.50792976C.450727142 9.39577772.155246266 9.50942421.0430942257 9.7617663.0146811151 9.8256958 6.57566287e-16 9.89487636 6.66133815e-16 9.96483553L0 27.9147727C0 28.5715909.328409091 29.2284091.985227273 29.3926136L13.3753054 34.8501481C13.8807312 35.0727761 14.4709354 34.8435232 14.6935634 34.3380974 14.7495142 34.2110739 14.7784091 34.0737938 14.7784091 33.9349937L14.7784091 16.4135095C14.7784091 16.0183207 14.5456756 15.6601992 14.1845476 15.4996979z"/>
</svg>
