<svg xmlns="http://www.w3.org/2000/svg" viewBox="0 0 31 36">
  <g fill="none" fill-rule="evenodd" transform="translate(0 1)">
    <path fill="#36D3B1" fill-rule="nonzero" d="M-1.54614099e-11,14.3221329 L-1.54614099e-11,32.2178457 C-1.5461241e-11,33.597549 1.11847053,34.7160196 2.49817385,34.7160196 L28.146092,34.7160196 C29.5257954,34.7160196 30.6442659,33.597549 30.6442659,32.2178457 L30.6442659,14.3221329 C30.6442659,13.2175634 29.7488354,12.3221329 28.6442659,12.3221329 L2,12.3221329 C0.8954305,12.3221329 -1.54615452e-11,13.2175634 -1.54614099e-11,14.3221329 Z"/>
    <path stroke="#36D3B1" stroke-linecap="round" stroke-width="2.8" d="M8,8.5 L8,8 C8,3.85786438 11.3578644,0.5 15.5,0.5 C19.6421356,0.5 23,3.85786438 23,8 L23,8.5"/>
    <circle cx="15" cy="23" r="4" fill="#FFF"/>
  </g>
</svg>
