<svg xmlns="http://www.w3.org/2000/svg" viewBox="0 0 22 19">
  <path fill="#7F878A" d="M22,2.3375 C21.175,2.70416667 20.3041667,2.93333333 19.3875,3.07083333 C20.3041667,2.52083333 21.0375,1.65 21.3583333,0.595833333 C20.4875,1.1 19.525,1.46666667 18.4708333,1.69583333 C17.6458333,0.825 16.4541667,0.275 15.1708333,0.275 C12.6958333,0.275 10.6791667,2.29166667 10.6791667,4.76666667 C10.6791667,5.13333333 10.725,5.45416667 10.8166667,5.775 C7.10416667,5.59166667 3.75833333,3.80416667 1.5125,1.05416667 C1.14583333,1.74166667 0.916666667,2.475 0.916666667,3.3 C0.916666667,4.85833333 1.69583333,6.23333333 2.93333333,7.05833333 C2.2,7.0125 1.5125,6.82916667 0.870833333,6.50833333 C0.870833333,6.50833333 0.870833333,6.55416667 0.870833333,6.55416667 C0.870833333,8.75416667 2.42916667,10.5875 4.49166667,11 C4.125,11.0916667 3.7125,11.1375 3.3,11.1375 C3.025,11.1375 2.70416667,11.0916667 2.42916667,11.0458333 C3.025,12.8333333 4.675,14.1625 6.64583333,14.1625 C5.0875,15.3541667 3.1625,16.0875 1.05416667,16.0875 C0.6875,16.0875 0.320833333,16.0875 0,16.0416667 C2.01666667,17.325 4.35416667,18.0583333 6.92083333,18.0583333 C15.2166667,18.0583333 19.7541667,11.1833333 19.7541667,5.225 C19.7541667,5.04166667 19.7541667,4.8125 19.7541667,4.62916667 C20.625,4.03333333 21.4041667,3.25416667 22,2.3375 Z"/>
</svg>
