<svg xmlns="http://www.w3.org/2000/svg" viewBox="0 0 34 28">
  <g fill="none" transform="translate(0 -1)">
    <path fill="#B7BFC6" d="M33.49,8.5 C32.8525,8.01833333 26.5129167,2.83333333 17,2.83333333 C14.8679167,2.83333333 12.9058333,3.1025 11.1208333,3.51333333 L25.755,18.1333333 L33.49,8.5 Z"/>
    <path fill="#415668" d="M3.73645833,1.53354167 L3.73645833,1.53354167 C3.23767617,2.03232383 3.23767617,2.8410095 3.73645833,3.33979167 L5.74458333,5.34791667 C2.71291667,6.74333333 0.842916667,8.25208333 0.51,8.50708333 L16.9858333,29.0345833 L17,29.0416667 L17.0141667,29.0275 L22.5391667,22.1425 L26.3322917,25.935625 C26.8310738,26.4344072 27.6397595,26.4344072 28.1385417,25.935625 L28.1385417,25.935625 C28.6373238,25.4368428 28.6373238,24.6281572 28.1385417,24.129375 L5.54270833,1.53354167 C5.04392617,1.0347595 4.2352405,1.0347595 3.73645833,1.53354167 Z"/>
  </g>
</svg>
