<svg xmlns="http://www.w3.org/2000/svg" viewBox="0 0 34 28">
  <path fill="#F26075" d="M33.49 8.5C32.8525 8.01833333 26.5129167 2.83333333 17 2.83333333 14.8679167 2.83333333 12.9058333 3.1025 11.1208333 3.51333333L25.755 18.1333333 33.49 8.5zM3.73645833 1.53354167L3.73645833 1.53354167C3.23767617 2.03232383 3.23767617 2.8410095 3.73645833 3.33979167L5.74458333 5.34791667C2.71291667 6.74333333.842916667 8.25208333.51 8.50708333L16.9858333 29.0345833 17 29.0416667 17.0141667 29.0275 22.5391667 22.1425 26.3322917 25.935625C26.8310738 26.4344072 27.6397595 26.4344072 28.1385417 25.935625L28.1385417 25.935625C28.6373238 25.4368428 28.6373238 24.6281572 28.1385417 24.129375L5.54270833 1.53354167C5.04392617 1.0347595 4.2352405 1.0347595 3.73645833 1.53354167z" transform="translate(0 -1)"/>
</svg>
